<svg width="40" height="40" viewBox="0 0 40 40" fill="none" xmlns="http://www.w3.org/2000/svg">
<rect width="40" height="40" fill="#9D0913"/>
<path fill-rule="evenodd" clip-rule="evenodd" d="M5.97995 22.0771L13.7647 8.59836C16.5464 3.80055 23.4724 3.80055 26.2353 8.59836L34.02 22.0771C36.8017 26.8749 33.3293 32.8861 27.7848 32.8861H12.2152C6.67068 32.8861 3.19833 26.8749 5.97995 22.0771ZM11.5433 28.388C9.73285 27.3422 9.1168 25.027 10.1622 23.2161L17.1441 11.1377C18.1895 9.32675 20.5047 8.7107 22.3151 9.75655C24.126 10.8014 24.7421 13.1167 23.6967 14.9276L16.7148 27.006C15.6508 28.8169 13.3542 29.4329 11.5433 28.388ZM26.1609 29.1712C28.4909 29.1712 30.3796 27.282 30.3796 24.9515C30.3796 22.622 28.4909 20.7328 26.1609 20.7328C23.8304 20.7328 21.9416 22.622 21.9416 24.9515C21.9416 27.282 23.8304 29.1712 26.1609 29.1712Z" fill="white"/>
</svg>
